<svg width="32" height="32" viewBox="0 0 32 32" fill="none" xmlns="http://www.w3.org/2000/svg">
<path d="M15.9966 11.5537C13.5483 11.5537 11.5503 13.5518 11.5503 16.0001C11.5503 18.4484 13.5483 20.4464 15.9966 20.4464C18.445 20.4464 20.443 18.4484 20.443 16.0001C20.443 13.5518 18.445 11.5537 15.9966 11.5537ZM29.3323 16.0001C29.3323 14.1588 29.349 12.3343 29.2456 10.4964C29.1422 8.36159 28.6552 6.46697 27.0942 4.90592C25.5298 3.34153 23.6385 2.85787 21.5037 2.75447C19.6625 2.65106 17.8379 2.66774 16 2.66774C14.1587 2.66774 12.3342 2.65106 10.4963 2.75447C8.36147 2.85787 6.46686 3.34486 4.9058 4.90592C3.34141 6.47031 2.85775 8.36159 2.75434 10.4964C2.65094 12.3376 2.66762 14.1622 2.66762 16.0001C2.66762 17.838 2.65094 19.6659 2.75434 21.5038C2.85775 23.6386 3.34474 25.5332 4.9058 27.0942C6.47019 28.6586 8.36147 29.1423 10.4963 29.2457C12.3375 29.3491 14.1621 29.3324 16 29.3324C17.8412 29.3324 19.6658 29.3491 21.5037 29.2457C23.6385 29.1423 25.5331 28.6553 27.0942 27.0942C28.6585 25.5299 29.1422 23.6386 29.2456 21.5038C29.3523 19.6659 29.3323 17.8413 29.3323 16.0001ZM15.9966 22.8414C12.2107 22.8414 9.15534 19.786 9.15534 16.0001C9.15534 12.2142 12.2107 9.15879 15.9966 9.15879C19.7825 9.15879 22.8379 12.2142 22.8379 16.0001C22.8379 19.786 19.7825 22.8414 15.9966 22.8414ZM23.1181 10.4763C22.2342 10.4763 21.5204 9.76253 21.5204 8.8786C21.5204 7.99467 22.2342 7.28086 23.1181 7.28086C24.0021 7.28086 24.7159 7.99467 24.7159 8.8786C24.7161 9.0885 24.675 9.29638 24.5948 9.49035C24.5146 9.68431 24.3969 9.86055 24.2485 10.009C24.1001 10.1574 23.9238 10.2751 23.7299 10.3553C23.5359 10.4355 23.328 10.4766 23.1181 10.4763Z" fill="#F6A923"/>
</svg>
