<svg width="32" height="32" viewBox="0 0 32 32" fill="none" xmlns="http://www.w3.org/2000/svg">
<path d="M16 2.66675C8.63607 2.66675 2.66663 8.63619 2.66663 16.0001C2.66663 23.364 8.63607 29.3334 16 29.3334C23.3638 29.3334 29.3333 23.364 29.3333 16.0001C29.3333 8.63619 23.3638 2.66675 16 2.66675ZM12.7361 21.5265H10.0361V12.8376H12.7361V21.5265ZM11.3694 11.7709C10.5166 11.7709 9.96524 11.1667 9.96524 10.4195C9.96524 9.65703 10.5333 9.07091 11.4041 9.07091C12.275 9.07091 12.8083 9.65703 12.825 10.4195C12.825 11.1667 12.275 11.7709 11.3694 11.7709ZM22.5972 21.5265H19.8972V16.7112C19.8972 15.5904 19.5055 14.8292 18.5291 14.8292C17.7833 14.8292 17.3402 15.3445 17.1444 15.8404C17.0722 16.0167 17.0541 16.2667 17.0541 16.5154V21.5251H14.3527V15.6084C14.3527 14.5237 14.318 13.6167 14.2819 12.8362H16.6277L16.7513 14.0431H16.8055C17.1611 13.4765 18.0319 12.6404 19.4888 12.6404C21.2652 12.6404 22.5972 13.8306 22.5972 16.389V21.5265Z" fill="#F6A923"/>
</svg>
