<svg width="28" height="28" viewBox="0 0 28 28" fill="none" xmlns="http://www.w3.org/2000/svg">
<rect width="28" height="28" rx="14" fill="#1D3761"/>
<path d="M12.6502 12.44H13.1462C13.4662 12.44 13.7755 12.4133 14.0742 12.36C14.3835 12.296 14.6555 12.1947 14.8902 12.056C15.1249 11.9067 15.3115 11.7093 15.4502 11.464C15.5995 11.2187 15.6742 10.9147 15.6742 10.552C15.6742 10.264 15.6209 10.008 15.5142 9.784C15.4075 9.54933 15.2582 9.352 15.0662 9.192C14.8849 9.032 14.6715 8.90933 14.4262 8.824C14.1915 8.728 13.9409 8.68 13.6742 8.68C13.1942 8.68 12.7835 8.80267 12.4422 9.048C12.1115 9.29333 11.8609 9.63467 11.6902 10.072L10.2822 9.576C10.5595 8.89333 11.0022 8.36 11.6102 7.976C12.2289 7.58133 12.9382 7.384 13.7382 7.384C14.2075 7.384 14.6502 7.45333 15.0662 7.592C15.4929 7.72 15.8662 7.912 16.1862 8.168C16.5062 8.424 16.7569 8.744 16.9382 9.128C17.1302 9.512 17.2262 9.95467 17.2262 10.456C17.2262 10.776 17.1729 11.0747 17.0662 11.352C16.9702 11.6293 16.8315 11.88 16.6502 12.104C16.4795 12.328 16.2715 12.52 16.0262 12.68C15.7809 12.84 15.5142 12.9573 15.2262 13.032V13.064C15.5569 13.128 15.8609 13.24 16.1382 13.4C16.4262 13.56 16.6715 13.7627 16.8742 14.008C17.0769 14.2427 17.2369 14.5147 17.3542 14.824C17.4715 15.1333 17.5302 15.4693 17.5302 15.832C17.5302 16.3973 17.4235 16.8987 17.2102 17.336C16.9969 17.7627 16.7142 18.12 16.3622 18.408C16.0102 18.696 15.6049 18.9147 15.1462 19.064C14.6875 19.2133 14.2182 19.288 13.7382 19.288C12.8422 19.288 12.0529 19.0853 11.3702 18.68C10.6875 18.2747 10.1915 17.6453 9.88219 16.792L11.3222 16.312C11.4929 16.8027 11.7809 17.2027 12.1862 17.512C12.6022 17.8213 13.1089 17.976 13.7062 17.976C13.9942 17.976 14.2715 17.9333 14.5382 17.848C14.8155 17.752 15.0609 17.6133 15.2742 17.432C15.4875 17.2507 15.6582 17.0267 15.7862 16.76C15.9142 16.4933 15.9782 16.1787 15.9782 15.816C15.9782 15.4213 15.8929 15.0907 15.7222 14.824C15.5515 14.5573 15.3275 14.344 15.0502 14.184C14.7835 14.0133 14.4795 13.896 14.1382 13.832C13.7969 13.7573 13.4609 13.72 13.1302 13.72H12.6502V12.44Z" fill="#F6A923"/>
</svg>
