<svg width="28" height="28" viewBox="0 0 28 28" fill="none" xmlns="http://www.w3.org/2000/svg">
<rect width="28" height="28" rx="14" fill="#1D3761"/>
<path d="M17.5942 19H10.2022V17.512L14.7142 13.032C15.0555 12.68 15.3489 12.312 15.5942 11.928C15.8395 11.544 15.9622 11.112 15.9622 10.632C15.9622 10.3333 15.9089 10.0667 15.8022 9.832C15.6955 9.58667 15.5515 9.37867 15.3702 9.208C15.1889 9.03733 14.9755 8.90933 14.7302 8.824C14.4849 8.728 14.2235 8.68 13.9462 8.68C13.3702 8.68 12.8955 8.86667 12.5222 9.24C12.1489 9.60267 11.9142 10.072 11.8182 10.648L10.2982 10.392C10.3622 9.96533 10.4955 9.57067 10.6982 9.208C10.9115 8.83467 11.1782 8.51467 11.4982 8.248C11.8182 7.97067 12.1862 7.75733 12.6022 7.608C13.0289 7.45867 13.4822 7.384 13.9622 7.384C14.4315 7.384 14.8795 7.45333 15.3062 7.592C15.7435 7.73067 16.1275 7.93333 16.4582 8.2C16.7889 8.46667 17.0502 8.80267 17.2422 9.208C17.4449 9.61333 17.5462 10.0773 17.5462 10.6C17.5462 10.9627 17.4982 11.2987 17.4022 11.608C17.3062 11.9173 17.1729 12.2107 17.0022 12.488C16.8422 12.7653 16.6502 13.032 16.4262 13.288C16.2022 13.5333 15.9675 13.7787 15.7222 14.024L12.0422 17.608H17.5942V19Z" fill="#F6A923"/>
</svg>
